<?xml version="1.0" encoding="utf-8"?>
<svg version="1.1" id="Слой_1" xmlns="http://www.w3.org/2000/svg" xmlns:xlink="http://www.w3.org/1999/xlink" x="0px" y="0px"
	 viewBox="0 0 20 20" enable-background="new 0 0 20 20" xml:space="preserve">
<g>
	<circle fill-rule="evenodd" clip-rule="evenodd" fill="#EBBF46" cx="10" cy="10" r="10"/>
	<g>
		<g>
			<path fill="#FFFFFF" d="M10,2.3c4.2,0,7.7,3.4,7.7,7.7s-3.4,7.7-7.7,7.7S2.3,14.2,2.3,10S5.8,2.3,10,2.3 M10,1.3
				c-4.8,0-8.7,3.9-8.7,8.7s3.9,8.7,8.7,8.7s8.7-3.9,8.7-8.7S14.8,1.3,10,1.3L10,1.3z"/>
		</g>
	</g>
	<g>
		<polygon fill-rule="evenodd" clip-rule="evenodd" fill="#FFFFFF" points="10.1,9.7 4.8,9.1 7.1,13 10.1,13 13.2,13 15.5,9.1 		"/>
		<polygon fill-rule="evenodd" clip-rule="evenodd" fill="#FFFFFF" points="10.1,12.7 6.3,10.4 10.1,6.6 13.7,10.2 		"/>
		<polygon fill-rule="evenodd" clip-rule="evenodd" fill="#FFFFFF" points="10.1,11.3 4.8,9.1 7.1,13 10.1,13 13.2,13 15.5,9.1
			"/>
		<polyline fill-rule="evenodd" clip-rule="evenodd" fill="#FFFFFF" points="6,13 10.1,13 13.2,13 9.6,11.4 		"/>
		<polygon fill-rule="evenodd" clip-rule="evenodd" fill="#FFFFFF" points="9.9,10.1 9.9,8.1 10.9,9.1 		"/>
	</g>
</g>
</svg>
